<svg xmlns="http://www.w3.org/2000/svg" id="svg4129" version="1.1" xml:space="preserve" width="1536.004" viewBox="0 0 1536.004 1536.003" height="1536.003" clip-rule="evenodd" fill-rule="evenodd" image-rendering="optimizeQuality" shape-rendering="geometricPrecision" text-rendering="geometricPrecision"><defs id="defs4109"><style id="style4107" type="text/css">.fil0{fill:#78909c}.fil1{fill:#cfb38c}</style></defs><g transform="translate(-255.999 -256)" id="Layer_x0020_1"><g id="_438274144"><g id="g4113"><path transform="matrix(-1.13207 1.13207 .76525 .76525 1755.24 256)" id="_438275392" class="fil0" fill="#78909c" d="M0 0h207.604v48.04H0z"/><path transform="rotate(135 710.869 538.63) scale(.50534 -1.08223)" id="_438275152" class="fil1" fill="#cfb38c" d="M0 0h207.604v48.04H0z"/></g><path id="_438275080" d="M1173.14 1167.93c-62.042 62.043-116.811 131.36-137.906 181.55-51.144 121.683-74.03 135.138-130.921 192.03-108.802 108.801-287.893 107.745-396.694-1.056h-.001c-108.801-108.8-108.801-286.837 0-395.638 77.632-77.633 102.971-77.529 223.194-148.474 45.429-26.805 99.71-71.777 149.335-121.402 49.625-49.625 94.596-103.906 121.402-149.335 70.945-120.222 70.841-145.562 148.474-223.194 108.801-108.8 286.837-108.8 395.638 0v.001c108.801 108.801 109.857 287.893 1.055 396.694-56.89 56.89-70.346 79.777-192.03 130.921-50.189 21.095-119.506 75.863-181.55 137.906z" class="fil1" fill="#cfb38c"/><path id="_438274840" d="M1546.29 503.043L508.25 1541.083c-108.173-108.862-109.015-287.47-.424-396.061 56.891-56.89 70.346-79.776 192.03-130.921 50.19-21.094 119.506-75.863 181.55-137.906 62.042-62.043 116.811-131.36 137.906-181.549 51.144-121.684 74.03-135.139 130.921-192.031 108.591-108.589 287.198-107.749 396.061.424z" fill="#e8cba2"/><path id="_438274336" d="M1113.46 541.669c10.096-11.888 21.952-24.647 36.566-39.261a280.027 280.027 0 0112.868-12.054l395.875 395.875a276.275 276.275 0 01-12.05 12.874c-14.58 14.581-26.309 26.926-37.737 38.088L1113.46 541.669z" fill="#ff6f00"/><path id="_438274264" d="M941.806 1504.38c-11.005 11.236-23.172 22.806-37.494 37.13a277.413 277.413 0 01-13.514 12.611L495 1158.323a280.303 280.303 0 0112.617-13.508c14.348-14.348 26.908-26.034 38.613-36.011z" fill="#3e2723"/><g id="g4121"><path id="_438274288" d="M1146.81 1195.17c-20.086 21.506-38.902 43.408-55.431 64.684L788.224 956.698c21.276-16.528 43.178-35.345 64.684-55.43l293.902 293.902z" fill="#263238"/><path id="_438274528" d="M906.472 847.701c20.084-21.506 38.902-43.407 55.43-64.684l303.156 303.155c-21.276 16.53-43.178 35.345-64.684 55.431L906.472 847.701z" fill="#dd2c00"/></g><path transform="matrix(1.13207 -1.13207 .76525 .76525 255.998 1755.24)" id="_438273592" class="fil0" fill="#78909c" d="M0 0h207.604v48.04H0z"/><path transform="rotate(-45 2133.029 294.027) scale(.50534 1.08223)" id="_438273856" class="fil1" fill="#cfb38c" d="M0 0h207.604v48.04H0z"/></g></g><path transform="translate(-255.999 -256)" id="polygon4127" fill="none" d="M2048 2048H0V0h2048z"/></svg>